<?xml version="1.0" encoding="utf-8"?>
<!-- Generator: Adobe Illustrator 26.2.1, SVG Export Plug-In . SVG Version: 6.00 Build 0)  -->
<!DOCTYPE svg PUBLIC "-//W3C//DTD SVG 1.0//EN" "http://www.w3.org/TR/2001/REC-SVG-20010904/DTD/svg10.dtd" [
	<!ENTITY ns_extend "http://ns.adobe.com/Extensibility/1.0/">
	<!ENTITY ns_ai "http://ns.adobe.com/AdobeIllustrator/10.0/">
	<!ENTITY ns_graphs "http://ns.adobe.com/Graphs/1.0/">
	<!ENTITY ns_vars "http://ns.adobe.com/Variables/1.0/">
	<!ENTITY ns_imrep "http://ns.adobe.com/ImageReplacement/1.0/">
	<!ENTITY ns_sfw "http://ns.adobe.com/SaveForWeb/1.0/">
	<!ENTITY ns_custom "http://ns.adobe.com/GenericCustomNamespace/1.0/">
	<!ENTITY ns_adobe_xpath "http://ns.adobe.com/XPath/1.0/">
]>
<svg version="1.0" id="カット" xmlns:x="&ns_extend;" xmlns:i="&ns_ai;" xmlns:graph="&ns_graphs;"
	 xmlns="http://www.w3.org/2000/svg" xmlns:xlink="http://www.w3.org/1999/xlink" x="0px" y="0px" viewBox="0 0 1329.45 901.42"
	 style="enable-background:new 0 0 1329.45 901.42;" xml:space="preserve">
<style type="text/css">
	.st0{fill:none;stroke:#000000;stroke-width:0.2364;stroke-miterlimit:10;}
	.st1{fill:none;stroke:#000000;stroke-width:0.25;stroke-miterlimit:10;}
	.st2{fill:none;stroke:#000000;stroke-width:0.5005;stroke-miterlimit:10;}
</style>
<metadata>
	<sfw  xmlns="&ns_sfw;">
		<slices></slices>
		<sliceSourceBounds  bottomLeftOrigin="true" height="795.61" width="1083.45" x="17.34" y="-823"></sliceSourceBounds>
	</sfw>
</metadata>
<rect x="216.26" y="27.51" class="st0" width="294.8" height="477.05"/>
<rect x="451.6" y="168.99" class="st1" width="2.83" height="31.18"/>
<rect x="273.34" y="168.9" class="st1" width="2.83" height="31.18"/>
<circle class="st1" cx="439.84" cy="184.58" r="2.83"/>
<circle class="st1" cx="287.16" cy="184.58" r="2.83"/>
<circle class="st1" cx="116.68" cy="326.81" r="99.21"/>
<g>
	<path class="st1" d="M116.68,321.14h-5.63c-1.89,2.11-2,9.06,0,11.34h5.63"/>
	<path class="st1" d="M116.68,321.14h5.63c1.89,2.11,2,9.06,0,11.34h-5.63"/>
</g>
<g>
	<rect x="158.86" y="345.69" transform="matrix(0.5 0.866 -0.866 0.5 383.5811 29.8395)" class="st1" width="14.17" height="2.83"/>
	<rect x="123.4" y="284.27" transform="matrix(0.5 0.866 -0.866 0.5 312.6512 29.8395)" class="st1" width="14.17" height="2.83"/>
</g>
<g>
	
		<rect x="60.48" y="345.69" transform="matrix(-0.5 0.866 -0.866 -0.5 401.9572 462.1514)" class="st1" width="14.17" height="2.83"/>
	
		<rect x="95.95" y="284.27" transform="matrix(-0.5 0.866 -0.866 -0.5 401.9572 339.2971)" class="st1" width="14.17" height="2.83"/>
</g>
<g>
	
		<rect x="74.13" y="369.47" transform="matrix(-1 -7.338103e-07 7.338103e-07 -1 162.4316 741.7695)" class="st1" width="14.17" height="2.83"/>
	
		<rect x="145.06" y="369.47" transform="matrix(-1 -7.338103e-07 7.338103e-07 -1 304.2915 741.7697)" class="st1" width="14.17" height="2.83"/>
</g>
<circle class="st1" cx="116.68" cy="128.38" r="99.21"/>
<g>
	<path class="st1" d="M116.68,122.71h-5.63c-1.89,2.11-2,9.06,0,11.34h5.63"/>
	<path class="st1" d="M116.68,122.71h5.63c1.89,2.11,2,9.06,0,11.34h-5.63"/>
</g>
<g>
	
		<rect x="158.86" y="147.27" transform="matrix(0.5 0.866 -0.866 0.5 211.7399 -69.3731)" class="st1" width="14.17" height="2.83"/>
	<rect x="123.4" y="85.84" transform="matrix(0.5 0.866 -0.866 0.5 140.8099 -69.3731)" class="st1" width="14.17" height="2.83"/>
</g>
<g>
	
		<rect x="60.48" y="147.27" transform="matrix(-0.5 0.866 -0.866 -0.5 230.116 164.5136)" class="st1" width="14.17" height="2.83"/>
	<rect x="95.95" y="85.84" transform="matrix(-0.5 0.866 -0.866 -0.5 230.1159 41.6593)" class="st1" width="14.17" height="2.83"/>
</g>
<g>
	
		<rect x="74.13" y="171.04" transform="matrix(-1 -7.338103e-07 7.338103e-07 -1 162.4317 344.9192)" class="st1" width="14.17" height="2.83"/>
	
		<rect x="145.06" y="171.04" transform="matrix(-1 -7.338104e-07 7.338104e-07 -1 304.2916 344.9193)" class="st1" width="14.17" height="2.83"/>
</g>
<circle class="st1" cx="116.68" cy="525.23" r="99.21"/>
<g>
	<path class="st1" d="M116.68,519.56h-5.63c-1.89,2.11-2,9.06,0,11.34h5.63"/>
	<path class="st1" d="M116.68,519.56h5.63c1.89,2.11,2,9.06,0,11.34h-5.63"/>
</g>
<g>
	
		<rect x="158.86" y="544.12" transform="matrix(0.5 0.866 -0.866 0.5 555.4224 129.0521)" class="st1" width="14.17" height="2.83"/>
	<rect x="123.4" y="482.69" transform="matrix(0.5 0.866 -0.866 0.5 484.4925 129.0521)" class="st1" width="14.17" height="2.83"/>
</g>
<g>
	
		<rect x="60.48" y="544.12" transform="matrix(-0.5 0.866 -0.866 -0.5 573.7985 759.7891)" class="st1" width="14.17" height="2.83"/>
	
		<rect x="95.95" y="482.69" transform="matrix(-0.5 0.866 -0.866 -0.5 573.7985 636.9349)" class="st1" width="14.17" height="2.83"/>
</g>
<g>
	
		<rect x="74.13" y="567.89" transform="matrix(-1 -7.338105e-07 7.338105e-07 -1 162.4314 1138.62)" class="st1" width="14.17" height="2.83"/>
	
		<rect x="145.06" y="567.89" transform="matrix(-1 -7.338103e-07 7.338103e-07 -1 304.2913 1138.6201)" class="st1" width="14.17" height="2.83"/>
</g>
<circle class="st1" cx="116.68" cy="723.66" r="99.21"/>
<g>
	<path class="st1" d="M116.68,717.99h-5.63c-1.89,2.11-2,9.06,0,11.34h5.63"/>
	<path class="st1" d="M116.68,717.99h5.63c1.89,2.11,2,9.06,0,11.34h-5.63"/>
</g>
<g>
	
		<rect x="158.86" y="742.54" transform="matrix(0.5 0.866 -0.866 0.5 727.2637 228.2647)" class="st1" width="14.17" height="2.83"/>
	<rect x="123.4" y="681.12" transform="matrix(0.5 0.866 -0.866 0.5 656.3337 228.2647)" class="st1" width="14.17" height="2.83"/>
</g>
<g>
	
		<rect x="60.48" y="742.54" transform="matrix(-0.5 0.866 -0.866 -0.5 745.6398 1057.4269)" class="st1" width="14.17" height="2.83"/>
	
		<rect x="95.95" y="681.12" transform="matrix(-0.5 0.866 -0.866 -0.5 745.6398 934.5727)" class="st1" width="14.17" height="2.83"/>
</g>
<g>
	
		<rect x="74.13" y="766.32" transform="matrix(-1 -7.338105e-07 7.338105e-07 -1 162.4313 1535.4703)" class="st1" width="14.17" height="2.83"/>
	
		<rect x="145.06" y="766.32" transform="matrix(-1 -7.338103e-07 7.338103e-07 -1 304.2912 1535.4705)" class="st1" width="14.17" height="2.83"/>
</g>
<circle class="st1" cx="317.33" cy="666.09" r="99.21"/>
<g>
	<path class="st1" d="M317.33,660.42h-5.63c-1.89,2.11-2,9.06,0,11.34h5.63"/>
	<path class="st1" d="M317.33,660.42h5.63c1.89,2.11,2,9.06,0,11.34h-5.63"/>
</g>
<g>
	<rect x="359.51" y="684.97" transform="matrix(0.5 0.866 -0.866 0.5 777.7301 25.7103)" class="st1" width="14.17" height="2.83"/>
	<rect x="324.05" y="623.54" transform="matrix(0.5 0.866 -0.866 0.5 706.8002 25.7103)" class="st1" width="14.17" height="2.83"/>
</g>
<g>
	
		<rect x="261.13" y="684.97" transform="matrix(-0.5 0.866 -0.866 -0.5 996.7567 797.3005)" class="st1" width="14.17" height="2.83"/>
	
		<rect x="296.6" y="623.54" transform="matrix(-0.5 0.866 -0.866 -0.5 996.7567 674.4462)" class="st1" width="14.17" height="2.83"/>
</g>
<g>
	
		<rect x="274.78" y="708.75" transform="matrix(-1 -7.338105e-07 7.338105e-07 -1 563.7324 1420.3264)" class="st1" width="14.17" height="2.83"/>
	
		<rect x="345.71" y="708.75" transform="matrix(-1 -7.338103e-07 7.338103e-07 -1 705.5922 1420.3267)" class="st1" width="14.17" height="2.83"/>
</g>
<circle class="st1" cx="515.76" cy="666.09" r="99.21"/>
<g>
	<path class="st1" d="M515.76,660.42h-5.63c-1.89,2.11-2,9.06,0,11.34h5.63"/>
	<path class="st1" d="M515.76,660.42h5.63c1.89,2.11,2,9.06,0,11.34h-5.63"/>
</g>
<g>
	
		<rect x="557.94" y="684.97" transform="matrix(0.5 0.866 -0.866 0.5 876.9427 -146.131)" class="st1" width="14.17" height="2.83"/>
	
		<rect x="522.47" y="623.54" transform="matrix(0.5 0.866 -0.866 0.5 806.0128 -146.131)" class="st1" width="14.17" height="2.83"/>
</g>
<g>
	
		<rect x="459.56" y="684.97" transform="matrix(-0.5 0.866 -0.866 -0.5 1294.3944 625.4592)" class="st1" width="14.17" height="2.83"/>
	
		<rect x="495.02" y="623.54" transform="matrix(-0.5 0.866 -0.866 -0.5 1294.3944 502.6049)" class="st1" width="14.17" height="2.83"/>
</g>
<g>
	
		<rect x="473.21" y="708.75" transform="matrix(-1 -7.338105e-07 7.338105e-07 -1 960.5828 1420.3267)" class="st1" width="14.17" height="2.83"/>
	
		<rect x="544.13" y="708.75" transform="matrix(-1 -7.338103e-07 7.338103e-07 -1 1102.4426 1420.3268)" class="st1" width="14.17" height="2.83"/>
</g>
<circle class="st1" cx="714.18" cy="666.09" r="99.21"/>
<g>
	<path class="st1" d="M714.18,660.42h-5.63c-1.89,2.11-2,9.06,0,11.34h5.63"/>
	<path class="st1" d="M714.18,660.42h5.63c1.89,2.11,2,9.06,0,11.34h-5.63"/>
</g>
<g>
	
		<rect x="756.36" y="684.97" transform="matrix(0.5 0.866 -0.866 0.5 976.1553 -317.9723)" class="st1" width="14.17" height="2.83"/>
	
		<rect x="720.9" y="623.54" transform="matrix(0.5 0.866 -0.866 0.5 905.2254 -317.9723)" class="st1" width="14.17" height="2.83"/>
</g>
<g>
	
		<rect x="657.98" y="684.97" transform="matrix(-0.5 0.866 -0.866 -0.5 1592.0322 453.6179)" class="st1" width="14.17" height="2.83"/>
	
		<rect x="693.45" y="623.54" transform="matrix(-0.5 0.866 -0.866 -0.5 1592.0322 330.7637)" class="st1" width="14.17" height="2.83"/>
</g>
<g>
	
		<rect x="671.63" y="708.75" transform="matrix(-1 -7.338105e-07 7.338105e-07 -1 1357.4331 1420.3268)" class="st1" width="14.17" height="2.83"/>
	
		<rect x="742.56" y="708.75" transform="matrix(-1 -7.338103e-07 7.338103e-07 -1 1499.293 1420.3269)" class="st1" width="14.17" height="2.83"/>
</g>
<circle class="st1" cx="912.61" cy="666.09" r="99.21"/>
<g>
	<path class="st1" d="M912.61,660.42h-5.63c-1.89,2.11-2,9.06,0,11.34h5.63"/>
	<path class="st1" d="M912.61,660.42h5.63c1.89,2.11,2,9.06,0,11.34h-5.63"/>
</g>
<g>
	
		<rect x="954.79" y="684.97" transform="matrix(0.5 0.866 -0.866 0.5 1075.3679 -489.8135)" class="st1" width="14.17" height="2.83"/>
	
		<rect x="919.32" y="623.54" transform="matrix(0.5 0.866 -0.866 0.5 1004.438 -489.8135)" class="st1" width="14.17" height="2.83"/>
</g>
<g>
	
		<rect x="856.41" y="684.97" transform="matrix(-0.5 0.866 -0.866 -0.5 1889.67 281.7767)" class="st1" width="14.17" height="2.83"/>
	
		<rect x="891.87" y="623.54" transform="matrix(-0.5 0.866 -0.866 -0.5 1889.67 158.9224)" class="st1" width="14.17" height="2.83"/>
</g>
<g>
	
		<rect x="870.06" y="708.75" transform="matrix(-1 -7.338105e-07 7.338105e-07 -1 1754.2836 1420.3269)" class="st1" width="14.17" height="2.83"/>
	
		<rect x="940.99" y="708.75" transform="matrix(-1 -7.338103e-07 7.338103e-07 -1 1896.1434 1420.327)" class="st1" width="14.17" height="2.83"/>
</g>
<polygon class="st2" points="301.33,504.51 287.17,504.51 287.17,512.96 230.46,512.96 230.46,504.51 216.29,504.51 216.29,512.96 
	216.29,512.96 216.29,527.17 216.29,527.17 216.29,535.69 230.46,535.69 230.46,527.17 287.17,527.17 287.17,535.69 301.33,535.69 
	301.33,527.17 301.33,512.96 301.33,512.96 "/>
<polygon class="st2" points="386.37,504.51 372.21,504.51 372.21,512.96 315.5,512.96 315.5,504.51 301.33,504.51 301.33,512.96 
	301.33,512.96 301.33,527.17 301.33,527.17 301.33,535.69 315.5,535.69 315.5,527.17 372.21,527.17 372.21,535.69 386.37,535.69 
	386.37,527.17 386.37,512.96 386.37,512.96 "/>
<polygon class="st2" points="471.41,504.51 457.25,504.51 457.25,512.96 400.53,512.96 400.53,504.51 386.37,504.51 386.37,512.96 
	386.37,512.96 386.37,527.17 386.37,527.17 386.37,535.69 400.53,535.69 400.53,527.17 457.25,527.17 457.25,535.69 471.41,535.69 
	471.41,527.17 471.41,512.96 471.41,512.96 "/>
<polygon class="st2" points="556.45,504.51 542.29,504.51 542.29,512.96 485.57,512.96 485.57,504.51 471.41,504.51 471.41,512.96 
	471.41,512.96 471.41,527.17 471.41,527.17 471.41,535.69 485.57,535.69 485.57,527.17 542.29,527.17 542.29,535.69 556.45,535.69 
	556.45,527.17 556.45,512.96 556.45,512.96 "/>
<polygon class="st2" points="641.49,504.51 627.32,504.51 627.32,512.96 570.61,512.96 570.61,504.51 556.45,504.51 556.45,512.96 
	556.45,512.96 556.45,527.17 556.45,527.17 556.45,535.69 570.61,535.69 570.61,527.17 627.32,527.17 627.32,535.69 641.49,535.69 
	641.49,527.17 641.49,512.96 641.49,512.96 "/>
<polygon class="st2" points="726.53,504.51 712.36,504.51 712.36,512.96 655.65,512.96 655.65,504.51 641.49,504.51 641.49,512.96 
	641.49,512.96 641.49,527.17 641.49,527.17 641.49,535.69 655.65,535.69 655.65,527.17 712.36,527.17 712.36,535.69 726.53,535.69 
	726.53,527.17 726.53,512.96 726.53,512.96 "/>
<polygon class="st2" points="811.57,504.51 797.4,504.51 797.4,512.96 740.69,512.96 740.69,504.51 726.53,504.51 726.53,512.96 
	726.53,512.96 726.53,527.17 726.53,527.17 726.53,535.69 740.69,535.69 740.69,527.17 797.4,527.17 797.4,535.69 811.57,535.69 
	811.57,527.17 811.57,512.96 811.57,512.96 "/>
<polygon class="st2" points="896.61,504.51 882.44,504.51 882.44,512.96 825.73,512.96 825.73,504.51 811.57,504.51 811.57,512.96 
	811.57,512.96 811.57,527.17 811.57,527.17 811.57,535.69 825.73,535.69 825.73,527.17 882.44,527.17 882.44,535.69 896.61,535.69 
	896.61,527.17 896.61,512.96 896.61,512.96 "/>
<polygon class="st2" points="981.65,504.51 967.48,504.51 967.48,512.96 910.77,512.96 910.77,504.51 896.61,504.51 896.61,512.96 
	896.61,512.96 896.61,527.17 896.61,527.17 896.61,535.69 910.77,535.69 910.77,527.17 967.48,527.17 967.48,535.69 981.65,535.69 
	981.65,527.17 981.65,512.96 981.65,512.96 "/>
<polygon class="st2" points="301.33,535.69 287.17,535.69 287.17,544.14 230.46,544.14 230.46,535.69 216.29,535.69 216.29,544.14 
	216.29,544.14 216.29,558.35 216.29,558.35 216.29,566.87 230.46,566.87 230.46,558.35 287.17,558.35 287.17,566.87 301.33,566.87 
	301.33,558.35 301.33,544.14 301.33,544.14 "/>
<polygon class="st2" points="386.37,535.69 372.21,535.69 372.21,544.14 315.5,544.14 315.5,535.69 301.33,535.69 301.33,544.14 
	301.33,544.14 301.33,558.35 301.33,558.35 301.33,566.87 315.5,566.87 315.5,558.35 372.21,558.35 372.21,566.87 386.37,566.87 
	386.37,558.35 386.37,544.14 386.37,544.14 "/>
<polygon class="st2" points="471.41,535.69 457.25,535.69 457.25,544.14 400.53,544.14 400.53,535.69 386.37,535.69 386.37,544.14 
	386.37,544.14 386.37,558.35 386.37,558.35 386.37,566.87 400.53,566.87 400.53,558.35 457.25,558.35 457.25,566.87 471.41,566.87 
	471.41,558.35 471.41,544.14 471.41,544.14 "/>
<polygon class="st2" points="556.45,535.69 542.29,535.69 542.29,544.14 485.57,544.14 485.57,535.69 471.41,535.69 471.41,544.14 
	471.41,544.14 471.41,558.35 471.41,558.35 471.41,566.87 485.57,566.87 485.57,558.35 542.29,558.35 542.29,566.87 556.45,566.87 
	556.45,558.35 556.45,544.14 556.45,544.14 "/>
<polygon class="st2" points="641.49,535.69 627.32,535.69 627.32,544.14 570.61,544.14 570.61,535.69 556.45,535.69 556.45,544.14 
	556.45,544.14 556.45,558.35 556.45,558.35 556.45,566.87 570.61,566.87 570.61,558.35 627.32,558.35 627.32,566.87 641.49,566.87 
	641.49,558.35 641.49,544.14 641.49,544.14 "/>
<polygon class="st2" points="726.53,535.69 712.36,535.69 712.36,544.14 655.65,544.14 655.65,535.69 641.49,535.69 641.49,544.14 
	641.49,544.14 641.49,558.35 641.49,558.35 641.49,566.87 655.65,566.87 655.65,558.35 712.36,558.35 712.36,566.87 726.53,566.87 
	726.53,558.35 726.53,544.14 726.53,544.14 "/>
<polygon class="st2" points="811.57,535.69 797.4,535.69 797.4,544.14 740.69,544.14 740.69,535.69 726.53,535.69 726.53,544.14 
	726.53,544.14 726.53,558.35 726.53,558.35 726.53,566.87 740.69,566.87 740.69,558.35 797.4,558.35 797.4,566.87 811.57,566.87 
	811.57,558.35 811.57,544.14 811.57,544.14 "/>
<polygon class="st2" points="896.61,535.69 882.44,535.69 882.44,544.14 825.73,544.14 825.73,535.69 811.57,535.69 811.57,544.14 
	811.57,544.14 811.57,558.35 811.57,558.35 811.57,566.87 825.73,566.87 825.73,558.35 882.44,558.35 882.44,566.87 896.61,566.87 
	896.61,558.35 896.61,544.14 896.61,544.14 "/>
<polygon class="st2" points="981.65,535.69 967.48,535.69 967.48,544.14 910.77,544.14 910.77,535.69 896.61,535.69 896.61,544.14 
	896.61,544.14 896.61,558.35 896.61,558.35 896.61,566.87 910.77,566.87 910.77,558.35 967.48,558.35 967.48,566.87 981.65,566.87 
	981.65,558.35 981.65,544.14 981.65,544.14 "/>
<rect x="511.07" y="27.51" class="st0" width="294.8" height="477.05"/>
<rect x="746.41" y="168.99" class="st1" width="2.83" height="31.18"/>
<rect x="568.14" y="168.9" class="st1" width="2.83" height="31.18"/>
<circle class="st1" cx="734.64" cy="184.58" r="2.83"/>
<circle class="st1" cx="581.96" cy="184.58" r="2.83"/>
<rect x="805.87" y="27.51" class="st0" width="294.8" height="477.05"/>
<rect x="1041.21" y="168.99" class="st1" width="2.83" height="31.18"/>
<rect x="862.94" y="168.9" class="st1" width="2.83" height="31.18"/>
<circle class="st1" cx="1029.45" cy="184.58" r="2.83"/>
<circle class="st1" cx="876.77" cy="184.58" r="2.83"/>
</svg>
